<mxfile host="app.diagrams.net" agent="Mozilla/5.0 (Windows NT 10.0; Win64; x64) AppleWebKit/537.36 (KHTML, like Gecko) Chrome/127.0.0.0 Safari/537.36" version="24.7.7">
  <diagram name="Página-1" id="Jm3NWE1Y3OruNvIN9kwA">
    <mxGraphModel dx="880" dy="468" grid="1" gridSize="10" guides="1" tooltips="1" connect="1" arrows="1" fold="1" page="1" pageScale="1" pageWidth="827" pageHeight="1169" math="0" shadow="0">
      <root>
        <mxCell id="0" />
        <mxCell id="1" parent="0" />
        <mxCell id="JNQlVzB11cVzMh2FbZ7--6" value="" style="edgeStyle=orthogonalEdgeStyle;rounded=0;orthogonalLoop=1;jettySize=auto;html=1;" edge="1" parent="1" target="JNQlVzB11cVzMh2FbZ7--4">
          <mxGeometry relative="1" as="geometry">
            <mxPoint x="200" y="140" as="sourcePoint" />
          </mxGeometry>
        </mxCell>
        <mxCell id="JNQlVzB11cVzMh2FbZ7--8" value="" style="edgeStyle=orthogonalEdgeStyle;rounded=0;orthogonalLoop=1;jettySize=auto;html=1;" edge="1" parent="1" source="JNQlVzB11cVzMh2FbZ7--4" target="JNQlVzB11cVzMh2FbZ7--7">
          <mxGeometry relative="1" as="geometry" />
        </mxCell>
        <mxCell id="JNQlVzB11cVzMh2FbZ7--4" value="&lt;span class=&quot;notion-enable-hover&quot; data-token-index=&quot;0&quot; style=&quot;font-weight:600&quot;&gt;&lt;font style=&quot;font-size: 10px;&quot;&gt;Obtenha o Controle da TV&lt;/font&gt;&lt;/span&gt;" style="rounded=0;whiteSpace=wrap;html=1;fillColor=#e1d5e7;strokeColor=#9673a6;" vertex="1" parent="1">
          <mxGeometry x="230" y="110" width="120" height="60" as="geometry" />
        </mxCell>
        <mxCell id="JNQlVzB11cVzMh2FbZ7--10" value="" style="edgeStyle=orthogonalEdgeStyle;rounded=0;orthogonalLoop=1;jettySize=auto;html=1;" edge="1" parent="1" source="JNQlVzB11cVzMh2FbZ7--7" target="JNQlVzB11cVzMh2FbZ7--9">
          <mxGeometry relative="1" as="geometry" />
        </mxCell>
        <mxCell id="JNQlVzB11cVzMh2FbZ7--13" value="" style="edgeStyle=orthogonalEdgeStyle;rounded=0;orthogonalLoop=1;jettySize=auto;html=1;" edge="1" parent="1" source="JNQlVzB11cVzMh2FbZ7--7" target="JNQlVzB11cVzMh2FbZ7--12">
          <mxGeometry relative="1" as="geometry" />
        </mxCell>
        <mxCell id="JNQlVzB11cVzMh2FbZ7--7" value="&lt;span class=&quot;notion-enable-hover&quot; data-token-index=&quot;0&quot; style=&quot;font-weight:600&quot;&gt;&lt;font style=&quot;font-size: 10px;&quot;&gt;Se a TV estiver ligada:&lt;/font&gt;&lt;/span&gt;" style="strokeWidth=2;html=1;shape=mxgraph.flowchart.decision;whiteSpace=wrap;fillColor=#ffe6cc;strokeColor=#d79b00;" vertex="1" parent="1">
          <mxGeometry x="380" y="90" width="100" height="100" as="geometry" />
        </mxCell>
        <mxCell id="JNQlVzB11cVzMh2FbZ7--20" value="" style="edgeStyle=orthogonalEdgeStyle;rounded=0;orthogonalLoop=1;jettySize=auto;html=1;" edge="1" parent="1" source="JNQlVzB11cVzMh2FbZ7--9" target="JNQlVzB11cVzMh2FbZ7--19">
          <mxGeometry relative="1" as="geometry" />
        </mxCell>
        <mxCell id="JNQlVzB11cVzMh2FbZ7--9" value="&lt;span class=&quot;notion-enable-hover&quot; data-token-index=&quot;0&quot; style=&quot;font-weight:600&quot;&gt;&lt;font style=&quot;font-size: 10px;&quot;&gt;Localize e aperte o botão da Netflix no controle remoto.&lt;/font&gt;&lt;/span&gt;" style="rounded=0;whiteSpace=wrap;html=1;fillColor=#e1d5e7;strokeColor=#9673a6;" vertex="1" parent="1">
          <mxGeometry x="510" y="110" width="120" height="60" as="geometry" />
        </mxCell>
        <mxCell id="JNQlVzB11cVzMh2FbZ7--11" value="&lt;font style=&quot;font-size: 10px;&quot;&gt;&lt;b&gt;Sim&lt;/b&gt;&lt;/font&gt;" style="text;html=1;align=center;verticalAlign=middle;resizable=0;points=[];autosize=1;strokeColor=none;fillColor=none;" vertex="1" parent="1">
          <mxGeometry x="470" y="120" width="40" height="30" as="geometry" />
        </mxCell>
        <mxCell id="JNQlVzB11cVzMh2FbZ7--16" style="edgeStyle=orthogonalEdgeStyle;rounded=0;orthogonalLoop=1;jettySize=auto;html=1;entryX=0.5;entryY=1;entryDx=0;entryDy=0;" edge="1" parent="1" source="JNQlVzB11cVzMh2FbZ7--12" target="JNQlVzB11cVzMh2FbZ7--9">
          <mxGeometry relative="1" as="geometry" />
        </mxCell>
        <mxCell id="JNQlVzB11cVzMh2FbZ7--12" value="&lt;font style=&quot;font-size: 10px;&quot;&gt;&lt;b&gt;Ligue a TV.&lt;/b&gt;&lt;/font&gt;" style="whiteSpace=wrap;html=1;strokeWidth=2;fillColor=#e1d5e7;strokeColor=#9673a6;" vertex="1" parent="1">
          <mxGeometry x="380" y="230" width="100" height="50" as="geometry" />
        </mxCell>
        <mxCell id="JNQlVzB11cVzMh2FbZ7--14" value="&lt;font style=&quot;font-size: 10px;&quot;&gt;&lt;b&gt;Não&lt;/b&gt;&lt;/font&gt;" style="text;html=1;align=center;verticalAlign=middle;resizable=0;points=[];autosize=1;strokeColor=none;fillColor=none;" vertex="1" parent="1">
          <mxGeometry x="380" y="200" width="40" height="30" as="geometry" />
        </mxCell>
        <mxCell id="JNQlVzB11cVzMh2FbZ7--22" value="" style="edgeStyle=orthogonalEdgeStyle;rounded=0;orthogonalLoop=1;jettySize=auto;html=1;" edge="1" parent="1" source="JNQlVzB11cVzMh2FbZ7--19" target="JNQlVzB11cVzMh2FbZ7--21">
          <mxGeometry relative="1" as="geometry" />
        </mxCell>
        <mxCell id="JNQlVzB11cVzMh2FbZ7--19" value="&lt;span class=&quot;notion-enable-hover&quot; data-token-index=&quot;0&quot; style=&quot;font-weight:600&quot;&gt;&lt;font style=&quot;font-size: 10px;&quot;&gt;Aguarde o aplicativo da Netflix abrir.&lt;/font&gt;&lt;/span&gt;" style="rounded=0;whiteSpace=wrap;html=1;fillColor=#e1d5e7;strokeColor=#9673a6;" vertex="1" parent="1">
          <mxGeometry x="650" y="110" width="120" height="60" as="geometry" />
        </mxCell>
        <mxCell id="JNQlVzB11cVzMh2FbZ7--25" value="" style="edgeStyle=orthogonalEdgeStyle;rounded=0;orthogonalLoop=1;jettySize=auto;html=1;" edge="1" parent="1" source="JNQlVzB11cVzMh2FbZ7--21" target="JNQlVzB11cVzMh2FbZ7--24">
          <mxGeometry relative="1" as="geometry" />
        </mxCell>
        <mxCell id="JNQlVzB11cVzMh2FbZ7--30" style="edgeStyle=orthogonalEdgeStyle;rounded=0;orthogonalLoop=1;jettySize=auto;html=1;" edge="1" parent="1" source="JNQlVzB11cVzMh2FbZ7--21">
          <mxGeometry relative="1" as="geometry">
            <mxPoint x="550" y="310" as="targetPoint" />
          </mxGeometry>
        </mxCell>
        <mxCell id="JNQlVzB11cVzMh2FbZ7--21" value="&lt;span class=&quot;notion-enable-hover&quot; data-token-index=&quot;0&quot; style=&quot;font-weight:600&quot;&gt;&lt;font style=&quot;font-size: 10px;&quot;&gt;Se o cadastro&amp;nbsp;&lt;/font&gt;&lt;/span&gt;&lt;div&gt;&lt;span class=&quot;notion-enable-hover&quot; data-token-index=&quot;0&quot; style=&quot;font-weight:600&quot;&gt;&lt;font style=&quot;font-size: 10px;&quot;&gt;ainda não foi&amp;nbsp;&lt;/font&gt;&lt;/span&gt;&lt;/div&gt;&lt;div&gt;&lt;span class=&quot;notion-enable-hover&quot; data-token-index=&quot;0&quot; style=&quot;font-weight:600&quot;&gt;&lt;font style=&quot;font-size: 10px;&quot;&gt;feito:&lt;/font&gt;&lt;/span&gt;&lt;/div&gt;" style="strokeWidth=2;html=1;shape=mxgraph.flowchart.decision;whiteSpace=wrap;fillColor=#ffe6cc;strokeColor=#d79b00;" vertex="1" parent="1">
          <mxGeometry x="660" y="190" width="100" height="100" as="geometry" />
        </mxCell>
        <mxCell id="JNQlVzB11cVzMh2FbZ7--27" value="" style="edgeStyle=orthogonalEdgeStyle;rounded=0;orthogonalLoop=1;jettySize=auto;html=1;" edge="1" parent="1" source="JNQlVzB11cVzMh2FbZ7--24" target="JNQlVzB11cVzMh2FbZ7--26">
          <mxGeometry relative="1" as="geometry" />
        </mxCell>
        <mxCell id="JNQlVzB11cVzMh2FbZ7--24" value="&lt;font style=&quot;font-size: 10px;&quot;&gt;&lt;b&gt;Preencha as informações necessárias para o cadastro.&lt;/b&gt;&lt;/font&gt;" style="rounded=0;whiteSpace=wrap;html=1;fillColor=#e1d5e7;strokeColor=#9673a6;" vertex="1" parent="1">
          <mxGeometry x="650" y="330" width="120" height="60" as="geometry" />
        </mxCell>
        <mxCell id="JNQlVzB11cVzMh2FbZ7--32" value="" style="edgeStyle=orthogonalEdgeStyle;rounded=0;orthogonalLoop=1;jettySize=auto;html=1;" edge="1" parent="1" source="JNQlVzB11cVzMh2FbZ7--26" target="JNQlVzB11cVzMh2FbZ7--31">
          <mxGeometry relative="1" as="geometry" />
        </mxCell>
        <mxCell id="JNQlVzB11cVzMh2FbZ7--26" value="&lt;font style=&quot;font-size: 10px;&quot;&gt;&lt;b&gt;Configure a forma de pagamento.&lt;/b&gt;&lt;/font&gt;" style="rounded=0;whiteSpace=wrap;html=1;fillColor=#e1d5e7;strokeColor=#9673a6;" vertex="1" parent="1">
          <mxGeometry x="650" y="410" width="120" height="60" as="geometry" />
        </mxCell>
        <mxCell id="JNQlVzB11cVzMh2FbZ7--28" value="&lt;font style=&quot;font-size: 10px;&quot;&gt;&lt;b&gt;Sim&lt;/b&gt;&lt;/font&gt;" style="text;html=1;align=center;verticalAlign=middle;resizable=0;points=[];autosize=1;strokeColor=none;fillColor=none;" vertex="1" parent="1">
          <mxGeometry x="660" y="300" width="40" height="30" as="geometry" />
        </mxCell>
        <mxCell id="JNQlVzB11cVzMh2FbZ7--36" value="" style="edgeStyle=orthogonalEdgeStyle;rounded=0;orthogonalLoop=1;jettySize=auto;html=1;" edge="1" parent="1" source="JNQlVzB11cVzMh2FbZ7--31" target="JNQlVzB11cVzMh2FbZ7--34">
          <mxGeometry relative="1" as="geometry" />
        </mxCell>
        <mxCell id="JNQlVzB11cVzMh2FbZ7--39" value="" style="edgeStyle=orthogonalEdgeStyle;rounded=0;orthogonalLoop=1;jettySize=auto;html=1;" edge="1" parent="1" source="JNQlVzB11cVzMh2FbZ7--31" target="JNQlVzB11cVzMh2FbZ7--38">
          <mxGeometry relative="1" as="geometry" />
        </mxCell>
        <mxCell id="JNQlVzB11cVzMh2FbZ7--31" value="&lt;span style=&quot;font-size: 10px;&quot;&gt;&lt;b&gt;Se já houver um login registrado&lt;/b&gt;&lt;/span&gt;" style="strokeWidth=2;html=1;shape=mxgraph.flowchart.decision;whiteSpace=wrap;fillColor=#ffe6cc;strokeColor=#d79b00;" vertex="1" parent="1">
          <mxGeometry x="500" y="310" width="100" height="100" as="geometry" />
        </mxCell>
        <mxCell id="JNQlVzB11cVzMh2FbZ7--33" value="&lt;font style=&quot;font-size: 10px;&quot;&gt;&lt;b&gt;Não&lt;/b&gt;&lt;/font&gt;" style="text;html=1;align=center;verticalAlign=middle;resizable=0;points=[];autosize=1;strokeColor=none;fillColor=none;" vertex="1" parent="1">
          <mxGeometry x="580" y="220" width="40" height="30" as="geometry" />
        </mxCell>
        <mxCell id="JNQlVzB11cVzMh2FbZ7--43" value="" style="edgeStyle=orthogonalEdgeStyle;rounded=0;orthogonalLoop=1;jettySize=auto;html=1;" edge="1" parent="1" source="JNQlVzB11cVzMh2FbZ7--34" target="JNQlVzB11cVzMh2FbZ7--42">
          <mxGeometry relative="1" as="geometry" />
        </mxCell>
        <mxCell id="JNQlVzB11cVzMh2FbZ7--34" value="&lt;span&gt;&lt;font style=&quot;font-size: 10px;&quot;&gt;Aguarde a abertura da tela inicial da Netflix.&lt;/font&gt;&lt;/span&gt;" style="rounded=0;whiteSpace=wrap;html=1;fontStyle=1;fillColor=#e1d5e7;strokeColor=#9673a6;" vertex="1" parent="1">
          <mxGeometry x="340" y="330" width="120" height="60" as="geometry" />
        </mxCell>
        <mxCell id="JNQlVzB11cVzMh2FbZ7--37" value="&lt;font style=&quot;font-size: 10px;&quot;&gt;&lt;b&gt;Sim&lt;/b&gt;&lt;/font&gt;" style="text;html=1;align=center;verticalAlign=middle;resizable=0;points=[];autosize=1;strokeColor=none;fillColor=none;" vertex="1" parent="1">
          <mxGeometry x="460" y="340" width="40" height="30" as="geometry" />
        </mxCell>
        <mxCell id="JNQlVzB11cVzMh2FbZ7--41" style="edgeStyle=orthogonalEdgeStyle;rounded=0;orthogonalLoop=1;jettySize=auto;html=1;entryX=0.5;entryY=1;entryDx=0;entryDy=0;" edge="1" parent="1" source="JNQlVzB11cVzMh2FbZ7--38" target="JNQlVzB11cVzMh2FbZ7--34">
          <mxGeometry relative="1" as="geometry" />
        </mxCell>
        <mxCell id="JNQlVzB11cVzMh2FbZ7--38" value="&lt;b&gt;&lt;font style=&quot;font-size: 10px;&quot;&gt;Faça o login manualmente com suas credenciais.&lt;/font&gt;&lt;/b&gt;" style="rounded=0;whiteSpace=wrap;html=1;fillColor=#e1d5e7;strokeColor=#9673a6;" vertex="1" parent="1">
          <mxGeometry x="490" y="450" width="120" height="60" as="geometry" />
        </mxCell>
        <mxCell id="JNQlVzB11cVzMh2FbZ7--40" value="&lt;font style=&quot;font-size: 10px;&quot;&gt;&lt;b&gt;Não&lt;/b&gt;&lt;/font&gt;" style="text;html=1;align=center;verticalAlign=middle;resizable=0;points=[];autosize=1;strokeColor=none;fillColor=none;" vertex="1" parent="1">
          <mxGeometry x="500" y="420" width="40" height="30" as="geometry" />
        </mxCell>
        <mxCell id="JNQlVzB11cVzMh2FbZ7--48" value="" style="edgeStyle=orthogonalEdgeStyle;rounded=0;orthogonalLoop=1;jettySize=auto;html=1;" edge="1" parent="1" source="JNQlVzB11cVzMh2FbZ7--42" target="JNQlVzB11cVzMh2FbZ7--45">
          <mxGeometry relative="1" as="geometry" />
        </mxCell>
        <mxCell id="JNQlVzB11cVzMh2FbZ7--50" value="" style="edgeStyle=orthogonalEdgeStyle;rounded=0;orthogonalLoop=1;jettySize=auto;html=1;" edge="1" parent="1" source="JNQlVzB11cVzMh2FbZ7--42" target="JNQlVzB11cVzMh2FbZ7--49">
          <mxGeometry relative="1" as="geometry" />
        </mxCell>
        <mxCell id="JNQlVzB11cVzMh2FbZ7--42" value="&lt;span class=&quot;notion-enable-hover&quot; data-token-index=&quot;0&quot; style=&quot;font-weight:600&quot;&gt;&lt;font style=&quot;font-size: 10px;&quot;&gt;Se deseja continuar assistindo de onde parou anteriormente:&lt;/font&gt;&lt;/span&gt;" style="rhombus;whiteSpace=wrap;html=1;fillColor=#ffe6cc;strokeColor=#d79b00;" vertex="1" parent="1">
          <mxGeometry x="150" y="280" width="140" height="140" as="geometry" />
        </mxCell>
        <mxCell id="JNQlVzB11cVzMh2FbZ7--70" style="edgeStyle=orthogonalEdgeStyle;rounded=0;orthogonalLoop=1;jettySize=auto;html=1;entryX=0;entryY=0.25;entryDx=0;entryDy=0;" edge="1" parent="1" source="JNQlVzB11cVzMh2FbZ7--45" target="JNQlVzB11cVzMh2FbZ7--66">
          <mxGeometry relative="1" as="geometry">
            <Array as="points">
              <mxPoint x="300" y="220" />
              <mxPoint x="300" y="998" />
            </Array>
          </mxGeometry>
        </mxCell>
        <mxCell id="JNQlVzB11cVzMh2FbZ7--45" value="&lt;font style=&quot;font-size: 10px;&quot;&gt;Navegue até a seção “Continuar Assistindo” e selecione o título desejado.&lt;/font&gt;" style="rounded=0;whiteSpace=wrap;html=1;fontStyle=1;fillColor=#e1d5e7;strokeColor=#9673a6;" vertex="1" parent="1">
          <mxGeometry x="160" y="190" width="120" height="60" as="geometry" />
        </mxCell>
        <mxCell id="JNQlVzB11cVzMh2FbZ7--47" value="&lt;font style=&quot;font-size: 10px;&quot;&gt;&lt;b&gt;Sim&lt;/b&gt;&lt;/font&gt;" style="text;html=1;align=center;verticalAlign=middle;resizable=0;points=[];autosize=1;strokeColor=none;fillColor=none;" vertex="1" parent="1">
          <mxGeometry x="220" y="250" width="40" height="30" as="geometry" />
        </mxCell>
        <mxCell id="JNQlVzB11cVzMh2FbZ7--52" value="" style="edgeStyle=orthogonalEdgeStyle;rounded=0;orthogonalLoop=1;jettySize=auto;html=1;" edge="1" parent="1" source="JNQlVzB11cVzMh2FbZ7--49" target="JNQlVzB11cVzMh2FbZ7--51">
          <mxGeometry relative="1" as="geometry" />
        </mxCell>
        <mxCell id="JNQlVzB11cVzMh2FbZ7--49" value="&lt;b&gt;&lt;font style=&quot;font-size: 10px;&quot;&gt;Vá ao menu de opções e escolha entre assistir filme ou série.&lt;/font&gt;&lt;/b&gt;" style="whiteSpace=wrap;html=1;fillColor=#e1d5e7;strokeColor=#9673a6;" vertex="1" parent="1">
          <mxGeometry x="160" y="480" width="120" height="60" as="geometry" />
        </mxCell>
        <mxCell id="JNQlVzB11cVzMh2FbZ7--54" value="" style="edgeStyle=orthogonalEdgeStyle;rounded=0;orthogonalLoop=1;jettySize=auto;html=1;" edge="1" parent="1" source="JNQlVzB11cVzMh2FbZ7--51" target="JNQlVzB11cVzMh2FbZ7--53">
          <mxGeometry relative="1" as="geometry" />
        </mxCell>
        <mxCell id="JNQlVzB11cVzMh2FbZ7--51" value="&lt;font style=&quot;font-size: 10px;&quot;&gt;&lt;b&gt;Selecione o gênero desejado dentro do menu de opções.&lt;/b&gt;&lt;/font&gt;" style="whiteSpace=wrap;html=1;fillColor=#e1d5e7;strokeColor=#9673a6;" vertex="1" parent="1">
          <mxGeometry x="160" y="580" width="120" height="60" as="geometry" />
        </mxCell>
        <mxCell id="JNQlVzB11cVzMh2FbZ7--56" value="" style="edgeStyle=orthogonalEdgeStyle;rounded=0;orthogonalLoop=1;jettySize=auto;html=1;" edge="1" parent="1" source="JNQlVzB11cVzMh2FbZ7--53" target="JNQlVzB11cVzMh2FbZ7--55">
          <mxGeometry relative="1" as="geometry" />
        </mxCell>
        <mxCell id="JNQlVzB11cVzMh2FbZ7--53" value="&lt;b&gt;&lt;font style=&quot;font-size: 10px;&quot;&gt;Navegue pela lista de opções de filmes ou séries.&lt;/font&gt;&lt;/b&gt;" style="whiteSpace=wrap;html=1;fillColor=#e1d5e7;strokeColor=#9673a6;" vertex="1" parent="1">
          <mxGeometry x="160" y="680" width="120" height="60" as="geometry" />
        </mxCell>
        <mxCell id="JNQlVzB11cVzMh2FbZ7--58" value="" style="edgeStyle=orthogonalEdgeStyle;rounded=0;orthogonalLoop=1;jettySize=auto;html=1;" edge="1" parent="1" source="JNQlVzB11cVzMh2FbZ7--55" target="JNQlVzB11cVzMh2FbZ7--57">
          <mxGeometry relative="1" as="geometry" />
        </mxCell>
        <mxCell id="JNQlVzB11cVzMh2FbZ7--55" value="&lt;b&gt;&lt;font style=&quot;font-size: 10px;&quot;&gt;Escolha a opção que mais deseja assistir.&lt;/font&gt;&lt;/b&gt;" style="whiteSpace=wrap;html=1;fillColor=#e1d5e7;strokeColor=#9673a6;" vertex="1" parent="1">
          <mxGeometry x="160" y="780" width="120" height="60" as="geometry" />
        </mxCell>
        <mxCell id="JNQlVzB11cVzMh2FbZ7--60" value="" style="edgeStyle=orthogonalEdgeStyle;rounded=0;orthogonalLoop=1;jettySize=auto;html=1;" edge="1" parent="1" source="JNQlVzB11cVzMh2FbZ7--57" target="JNQlVzB11cVzMh2FbZ7--59">
          <mxGeometry relative="1" as="geometry" />
        </mxCell>
        <mxCell id="JNQlVzB11cVzMh2FbZ7--57" value="&lt;b&gt;&lt;font style=&quot;font-size: 10px;&quot;&gt;Defina o idioma que deseja assistir&lt;/font&gt;&lt;/b&gt;" style="whiteSpace=wrap;html=1;fillColor=#e1d5e7;strokeColor=#9673a6;" vertex="1" parent="1">
          <mxGeometry x="160" y="890" width="120" height="60" as="geometry" />
        </mxCell>
        <mxCell id="JNQlVzB11cVzMh2FbZ7--67" value="" style="edgeStyle=orthogonalEdgeStyle;rounded=0;orthogonalLoop=1;jettySize=auto;html=1;" edge="1" parent="1" source="JNQlVzB11cVzMh2FbZ7--59" target="JNQlVzB11cVzMh2FbZ7--66">
          <mxGeometry relative="1" as="geometry" />
        </mxCell>
        <mxCell id="JNQlVzB11cVzMh2FbZ7--75" value="" style="edgeStyle=orthogonalEdgeStyle;rounded=0;orthogonalLoop=1;jettySize=auto;html=1;" edge="1" parent="1" source="JNQlVzB11cVzMh2FbZ7--59" target="JNQlVzB11cVzMh2FbZ7--61">
          <mxGeometry relative="1" as="geometry" />
        </mxCell>
        <mxCell id="JNQlVzB11cVzMh2FbZ7--59" value="&lt;font style=&quot;font-size: 10px;&quot;&gt;&lt;b&gt;Deseja ativar legendas?&lt;/b&gt;&lt;/font&gt;" style="rhombus;whiteSpace=wrap;html=1;fillColor=#ffe6cc;strokeColor=#d79b00;" vertex="1" parent="1">
          <mxGeometry x="175" y="970" width="90" height="80" as="geometry" />
        </mxCell>
        <mxCell id="JNQlVzB11cVzMh2FbZ7--81" style="edgeStyle=orthogonalEdgeStyle;rounded=0;orthogonalLoop=1;jettySize=auto;html=1;entryX=0.5;entryY=1;entryDx=0;entryDy=0;" edge="1" parent="1" source="JNQlVzB11cVzMh2FbZ7--61" target="JNQlVzB11cVzMh2FbZ7--66">
          <mxGeometry relative="1" as="geometry">
            <mxPoint x="370" y="1040" as="targetPoint" />
            <Array as="points">
              <mxPoint x="90" y="1090" />
              <mxPoint x="364" y="1090" />
            </Array>
          </mxGeometry>
        </mxCell>
        <mxCell id="JNQlVzB11cVzMh2FbZ7--61" value="&lt;font style=&quot;font-size: 10px;&quot;&gt;&lt;b&gt;Ative as legendas&lt;/b&gt;&lt;/font&gt;" style="whiteSpace=wrap;html=1;fillColor=#e1d5e7;strokeColor=#9673a6;" vertex="1" parent="1">
          <mxGeometry x="40" y="980" width="100" height="60" as="geometry" />
        </mxCell>
        <mxCell id="JNQlVzB11cVzMh2FbZ7--84" value="" style="edgeStyle=orthogonalEdgeStyle;rounded=0;orthogonalLoop=1;jettySize=auto;html=1;" edge="1" parent="1" source="JNQlVzB11cVzMh2FbZ7--66">
          <mxGeometry relative="1" as="geometry">
            <mxPoint x="450" y="1010" as="targetPoint" />
          </mxGeometry>
        </mxCell>
        <mxCell id="JNQlVzB11cVzMh2FbZ7--66" value="&lt;font style=&quot;font-size: 10px;&quot;&gt;&lt;b&gt;Dê o play no filme e aproveite&lt;/b&gt;&lt;/font&gt;" style="whiteSpace=wrap;html=1;fillColor=#e1d5e7;strokeColor=#9673a6;" vertex="1" parent="1">
          <mxGeometry x="314" y="985" width="100" height="50" as="geometry" />
        </mxCell>
        <mxCell id="JNQlVzB11cVzMh2FbZ7--71" value="&lt;font style=&quot;font-size: 10px;&quot;&gt;&lt;b&gt;Não&lt;/b&gt;&lt;/font&gt;" style="text;html=1;align=center;verticalAlign=middle;resizable=0;points=[];autosize=1;strokeColor=none;fillColor=none;" vertex="1" parent="1">
          <mxGeometry x="225" y="440" width="40" height="30" as="geometry" />
        </mxCell>
        <mxCell id="JNQlVzB11cVzMh2FbZ7--72" value="&lt;font style=&quot;font-size: 10px;&quot;&gt;&lt;b&gt;Não&lt;/b&gt;&lt;/font&gt;" style="text;html=1;align=center;verticalAlign=middle;resizable=0;points=[];autosize=1;strokeColor=none;fillColor=none;" vertex="1" parent="1">
          <mxGeometry x="260" y="985" width="40" height="30" as="geometry" />
        </mxCell>
        <mxCell id="JNQlVzB11cVzMh2FbZ7--76" value="&lt;font style=&quot;font-size: 10px;&quot;&gt;&lt;b&gt;Sim&lt;/b&gt;&lt;/font&gt;" style="text;html=1;align=center;verticalAlign=middle;resizable=0;points=[];autosize=1;strokeColor=none;fillColor=none;" vertex="1" parent="1">
          <mxGeometry x="140" y="985" width="40" height="30" as="geometry" />
        </mxCell>
        <mxCell id="JNQlVzB11cVzMh2FbZ7--82" value="&lt;b style=&quot;font-size: 10px;&quot;&gt;Início&lt;/b&gt;" style="strokeWidth=2;html=1;shape=mxgraph.flowchart.start_2;whiteSpace=wrap;fillColor=#d5e8d4;strokeColor=#82b366;" vertex="1" parent="1">
          <mxGeometry x="140" y="110" width="60" height="60" as="geometry" />
        </mxCell>
        <mxCell id="JNQlVzB11cVzMh2FbZ7--85" value="&lt;b style=&quot;font-size: 10px;&quot;&gt;Fim&lt;/b&gt;" style="strokeWidth=2;html=1;shape=mxgraph.flowchart.start_2;whiteSpace=wrap;fillColor=#d5e8d4;strokeColor=#82b366;" vertex="1" parent="1">
          <mxGeometry x="450" y="980" width="60" height="60" as="geometry" />
        </mxCell>
      </root>
    </mxGraphModel>
  </diagram>
</mxfile>
